<svg xmlns="http://www.w3.org/2000/svg" width="50" height="50" fill="none"><g clip-path="url(#a)"><path fill="#FFB54A" d="M25 50c13.807 0 25-11.193 25-25S38.807 0 25 0 0 11.193 0 25s11.193 25 25 25Z"/><path fill="#F9880D" d="M33.317 48.581c7.647-2.697 13.59-9.008 15.774-16.883L28.75 11.356s-8.663 7.256-8.308 9.248l3.975 3.926-1.331 13.82L33.317 48.58Z"/><path fill="#F8FFFB" d="M28.749 11.356V38.35h-5.664V18.324l-2.644 2.28-3.698-4.29 5.408-4.664.341-.294h6.257Z"/><path fill="#D8D8D8" d="M25 11.356h3.749V38.35H25V11.356Z"/></g><defs><clipPath id="a"><path fill="#fff" d="M0 0h50v50H0z"/></clipPath></defs></svg>