<svg xmlns="http://www.w3.org/2000/svg" width="50" height="50" fill="none"><g clip-path="url(#a)"><path fill="#424242" d="M25 50c13.807 0 25-11.193 25-25S38.807 0 25 0 0 11.193 0 25s11.193 25 25 25Z"/><path fill="#232323" d="M27.694 49.855c10.746-1.151 19.453-9.11 21.725-19.48l-16.12-16.12s-13.188-.365-17.952 7.47l7.02 7.038-6.251 9.587 11.578 11.505Z"/><path fill="#F8FFFB" d="M35.398 38.35H16.116v-6.51L28.5 22.467c1.57-1.19 1.192-2.847 1.038-3.327-.148-.462-.776-1.974-2.666-2.03a9.683 9.683 0 0 0-.146-.002h-2.19c-3.226 0-3.476 3.535-3.476 4.618h-5.713c0-6.082 3.779-10.33 9.189-10.33h2.222l.28.004c3.694.108 6.81 2.464 7.942 6 1.145 3.584-.045 7.36-3.032 9.621l-7.42 5.617h10.87v5.713Z"/><path fill="#D8D8D8" d="m31.948 27.02-6.57 4.974v-7.166l3.121-2.362c1.57-1.19 1.192-2.847 1.04-3.326-.148-.463-.778-1.975-2.668-2.03a8.56 8.56 0 0 0-.146-.002h-1.347v-5.713h1.38l.28.004c3.693.108 6.81 2.463 7.941 6.001 1.146 3.582-.044 7.359-3.031 9.62ZM25.379 32.637h10.02v5.713h-10.02v-5.713Z"/></g><defs><clipPath id="a"><path fill="#fff" d="M0 0h50v50H0z"/></clipPath></defs></svg>