<svg xmlns="http://www.w3.org/2000/svg" width="50" height="50" fill="none"><g clip-path="url(#a)"><path fill="#07E5CA" d="M25 50c13.807 0 25-11.193 25-25S38.807 0 25 0 0 11.193 0 25s11.193 25 25 25Z"/><path fill="#00B59B" d="m25.21 33.438-3.266-2.898-3.557 4.92 13.562 13.56c8.406-2.427 14.991-9.148 17.227-17.634L31.935 14.145l-15.777 4.343 6.927 6.911-.354 1.576 5.44 5.262s-1.869 1.402-2.96 1.2Z"/><path fill="#F8FFFB" d="M31.935 14.145c-1.567-1.746-4.184-2.789-7-2.789-.57 0-1.143.053-1.701.156l-.172.032a8.754 8.754 0 0 0-4.49 2.278A7.937 7.937 0 0 0 16.255 18l-.097.487 5.786.437.118-.304c.335-.866 1.143-1.515 2.11-1.694l.171-.031c1.091-.202 2.212.166 2.925.961.946 1.054.852 2.746-.206 3.696-.512.46-3.034.992-3.873.957l-.458-.02v4.485l.458-.02c.844-.035 3.36.497 3.873.957 1.058.95 1.152 2.643.206 3.697-.713.794-1.834 1.163-2.925.961l-.172-.032c-.966-.178-1.774-.827-2.11-1.694l-.117-.304-5.786.438.097.487a7.935 7.935 0 0 0 2.317 4.179 8.753 8.753 0 0 0 4.49 2.278l.171.031a9.37 9.37 0 0 0 1.702.156c2.816 0 5.433-1.042 7-2.788 2.64-2.942 2.515-7.515-.226-10.588 2.741-3.073 2.866-7.647.226-10.588Z"/><path fill="#D8D8D8" d="M31.709 24.733c2.741 3.073 2.865 7.646.226 10.588-1.555 1.732-4.143 2.772-6.935 2.788v-5.486c.867-.016 1.7-.379 2.269-1.014.945-1.054.851-2.747-.206-3.697-.284-.254-1.177-.53-2.063-.72v-4.918c.886-.19 1.78-.466 2.063-.72 1.057-.95 1.15-2.643.206-3.696-.57-.636-1.402-.998-2.269-1.015v-5.486c2.792.016 5.38 1.055 6.935 2.788 2.64 2.941 2.515 7.514-.226 10.588Z"/></g><defs><clipPath id="a"><path fill="#fff" d="M0 0h50v50H0z"/></clipPath></defs></svg>