<svg xmlns="http://www.w3.org/2000/svg" width="50" height="50" fill="none"><g clip-path="url(#a)"><path fill="#424242" d="M25 50c13.807 0 25-11.193 25-25S38.807 0 25 0 0 11.193 0 25s11.193 25 25 25Z"/><path fill="#232323" d="M49.691 28.933 32.41 11.65 14.985 31.644l17.282 17.282c9.045-2.744 15.92-10.475 17.424-19.994Z"/><path fill="#F8FFFB" d="M32.41 25.98V11.65h-7.356L14.985 26.096v5.549h11.76v6.706h5.664v-6.706h3.62V25.98h-3.62Zm-5.665 0H21.97l4.775-6.85v6.85Z"/><path fill="#D8D8D8" d="M32.41 25.98V11.65h-7.356l-.054.078v9.905l1.745-2.503v6.85H25v5.664h1.745v6.706h5.664v-6.706h3.62V25.98h-3.62Z"/></g><defs><clipPath id="a"><path fill="#fff" d="M0 0h50v50H0z"/></clipPath></defs></svg>