<svg xmlns="http://www.w3.org/2000/svg" width="50" height="50" fill="none"><g clip-path="url(#a)"><path fill="#07E5CA" d="M25 50c13.807 0 25-11.193 25-25S38.807 0 25 0 0 11.193 0 25s11.193 25 25 25Z"/><path fill="#00B59B" d="M30.962 49.283C41.228 46.77 49.005 37.92 49.91 27.115L34.446 11.65l-14.953 1.598-4.007 13.003 6.146 5.984-3.783 3.974 13.113 13.073Z"/><path fill="#F8FFFB" d="m22.86 17.315-.534 3.13 2.255-.106c2.568-.122 5.106.646 6.964 2.425 3.582 3.43 3.886 9.089.693 12.883a9.677 9.677 0 0 1-9.272 3.261l-.199-.039a9.391 9.391 0 0 1-4.918-2.659 9.392 9.392 0 0 1-2.526-4.854l5.727-.462a3.792 3.792 0 0 0 2.813 2.419l.198.039a4.01 4.01 0 0 0 3.843-1.353 3.773 3.773 0 0 0-.276-5.144 3.786 3.786 0 0 0-2.781-1.042l-9.362.44L18.13 11.65h16.316v5.665H22.86Z"/><path fill="#D8D8D8" d="M31.545 22.764c3.582 3.43 3.887 9.089.693 12.883A9.673 9.673 0 0 1 25 39.089v-5.665a4.01 4.01 0 0 0 2.904-1.425 3.773 3.773 0 0 0-.276-5.144A3.784 3.784 0 0 0 25 25.809v-5.482c2.424-.023 4.788.755 6.545 2.437ZM25 11.65h9.446v5.665H25V11.65Z"/></g><defs><clipPath id="a"><path fill="#fff" d="M0 0h50v50H0z"/></clipPath></defs></svg>