<svg xmlns="http://www.w3.org/2000/svg" width="50" height="50" fill="none"><g clip-path="url(#a)"><path fill="#FF6529" d="M25 50c13.807 0 25-11.193 25-25S38.807 0 25 0 0 11.193 0 25s11.193 25 25 25Z"/><path fill="#E53B07" d="m49.428 30.334-17.2-17.198s-12.984-.055-12.984 11.903v11.958l12.17 12.17c9.01-2.384 16.022-9.67 18.014-18.833Z"/><path fill="#F8FFFB" d="M24.975 21.199c-1.15 0-2.252.218-3.263.616A4.84 4.84 0 0 1 23 18.857a4.875 4.875 0 0 1 5.433-1.17l1.606.672 2.19-5.223-1.605-.673a10.56 10.56 0 0 0-11.77 2.535 10.489 10.489 0 0 0-2.82 7.168v7.974c0 4.93 4.011 8.94 8.941 8.94 4.93 0 8.941-4.01 8.941-8.94s-4.01-8.941-8.94-8.941Zm0 12.218a3.28 3.28 0 0 1-3.277-3.277 3.28 3.28 0 0 1 3.277-3.277 3.28 3.28 0 0 1 3.277 3.277 3.28 3.28 0 0 1-3.277 3.277Z"/><path fill="#D8D8D8" d="m28.434 17.686 1.605.673 2.19-5.224-1.606-.672A10.501 10.501 0 0 0 25 11.768v5.8a4.857 4.857 0 0 1 3.434.118ZM25 21.198v5.664a3.27 3.27 0 0 1 2.291.961c.594.594.961 1.413.961 2.317A3.28 3.28 0 0 1 25 33.416v5.664c4.919-.014 8.916-4.02 8.916-8.942 0-4.922-3.997-8.927-8.916-8.941Z"/></g><defs><clipPath id="a"><path fill="#fff" d="M0 0h50v50H0z"/></clipPath></defs></svg>