<svg xmlns="http://www.w3.org/2000/svg" width="50" height="50" fill="none"><g clip-path="url(#a)"><path fill="#F33" d="M25 50c13.807 0 25-11.193 25-25S38.807 0 25 0 0 11.193 0 25s11.193 25 25 25Z"/><path fill="#C60000" d="M31.784 49.068c10.106-2.843 17.619-11.88 18.182-22.754L35.303 11.65l-17.308 1.486-2.053 4.179L26.63 28.372l-5.595 9.947 10.75 10.75Z"/><path fill="#F8FFFB" d="m35.303 11.65-8.334 26.668h-5.935L27.6 17.316H15.942V11.65h19.36Z"/><path fill="#D8D8D8" d="m35.303 11.65-8.334 26.668H25V25.63l2.599-8.314H25V11.65h10.303Z"/></g><defs><clipPath id="a"><path fill="#fff" d="M0 0h50v50H0z"/></clipPath></defs></svg>