<svg xmlns="http://www.w3.org/2000/svg" width="50" height="50" fill="none"><g clip-path="url(#a)"><path fill="#FFB54A" d="M25 50c13.807 0 25-11.193 25-25S38.807 0 25 0 0 11.193 0 25s11.193 25 25 25Z"/><path fill="#F9880D" d="M48.923 32.275 31.267 14.62s-9.511-.61-10.611 5.142c-1.1 5.751-1.712 16.845-1.712 16.845l12.542 12.542c8.329-2.231 14.942-8.656 17.437-16.873Z"/><path fill="#F8FFFB" d="M31.54 24.549a8.066 8.066 0 0 0 1.57-4.788c0-4.472-3.638-8.11-8.11-8.11-4.472 0-8.11 3.638-8.11 8.11 0 1.79.584 3.445 1.57 4.788a8.16 8.16 0 0 0-2.462 5.845c0 4.43 3.604 8.033 8.034 8.033h1.937c4.43 0 8.033-3.603 8.033-8.033a8.162 8.162 0 0 0-2.462-5.845ZM25 17.315a2.449 2.449 0 0 1 2.446 2.446A2.449 2.449 0 0 1 25 22.207a2.449 2.449 0 0 1-2.446-2.446A2.449 2.449 0 0 1 25 17.315Zm.969 15.448h-1.937a2.372 2.372 0 0 1-2.37-2.37 2.525 2.525 0 0 1 2.523-2.522h1.63a2.525 2.525 0 0 1 2.523 2.523 2.372 2.372 0 0 1-2.37 2.37Z"/><path fill="#D8D8D8" d="M31.54 24.549a8.061 8.061 0 0 0 1.57-4.788c0-4.472-3.638-8.11-8.11-8.11v5.664a2.45 2.45 0 0 1 2.446 2.446A2.45 2.45 0 0 1 25 22.207v5.664h.815c1.391 0 2.523 1.131 2.523 2.523a2.371 2.371 0 0 1-2.37 2.369H25v5.664h.969c4.43 0 8.033-3.604 8.033-8.033a8.161 8.161 0 0 0-2.462-5.845Z"/></g><defs><clipPath id="a"><path fill="#fff" d="M0 0h50v50H0z"/></clipPath></defs></svg>