<svg xmlns="http://www.w3.org/2000/svg" width="70" height="70" fill="none"><rect width="70" height="70" fill="#FFF4F2" rx="10"/><path fill="#FF6652" d="M35.009 44.352a1.361 1.361 0 0 1-2.232 1.048l-7.448-6.171h-3.967c-.752 0-1.362-.61-1.362-1.362v-5.428c0-.753.61-1.363 1.362-1.363h3.967l7.448-6.171a1.362 1.362 0 0 1 2.232 1.05V44.35Zm5.236-2.129a1.36 1.36 0 0 1-1.061-.395L39 41.645a1.361 1.361 0 0 1-.131-1.775 7.862 7.862 0 0 0 1.558-4.717c0-1.84-.61-3.565-1.768-4.99-.44-.542-.4-1.33.094-1.822l.182-.183c.272-.272.637-.42 1.031-.396.385.019.744.2.987.498a10.774 10.774 0 0 1 2.453 6.894c0 2.37-.75 4.628-2.169 6.526-.237.316-.599.515-.993.543Zm5.632 4.21a1.364 1.364 0 0 1-2.005.085l-.178-.18c-.5-.5-.534-1.298-.08-1.84a14.543 14.543 0 0 0 3.408-9.345c0-3.55-1.296-6.968-3.648-9.624a1.363 1.363 0 0 1 .054-1.865l.18-.179c.264-.266.609-.413 1.004-.4.375.01.73.176.978.457A17.468 17.468 0 0 1 50 35.153c0 4.124-1.464 8.13-4.123 11.28Z"/></svg>