<svg xmlns="http://www.w3.org/2000/svg" width="40" height="40" fill="none"><rect width="40" height="40" fill="#E93E30" rx="7"/><g fill="#fff" clip-path="url(#a)"><path d="M29.823 17h-2.187v2.177h-2.177v2.187h2.177v2.177h2.187v-2.177H32v-2.187h-2.177V17ZM15.5 27.5c4.328 0 7.203-3.038 7.203-7.326 0-.491-.051-.87-.122-1.248h-7.08v2.578h4.257c-.174 1.095-1.289 3.233-4.257 3.233-2.557 0-4.645-2.118-4.645-4.737s2.087-4.738 4.645-4.738c1.463 0 2.435.624 2.988 1.156l2.036-1.954C19.214 13.237 17.526 12.5 15.5 12.5A7.498 7.498 0 0 0 8 20c0 4.144 3.356 7.5 7.5 7.5Z"/></g><defs><clipPath id="a"><path fill="#fff" d="M8 8h24v24H8z"/></clipPath></defs></svg>