<svg xmlns="http://www.w3.org/2000/svg" width="36" height="36" fill="none"><circle cx="18" cy="18" r="18" fill="#FF6652"/><path fill="#fff" d="M18 11.455c-1.777 0-2 .007-2.699.04-.696.031-1.172.141-1.588.303-.43.167-.796.391-1.16.755a3.212 3.212 0 0 0-.755 1.16c-.162.416-.273.892-.304 1.588-.031.698-.04.921-.04 2.699 0 1.778.008 2 .04 2.698.032.697.142 1.173.304 1.589.167.43.391.796.755 1.16.364.364.729.588 1.159.755.417.162.892.272 1.589.304.698.032.921.04 2.699.04 1.777 0 2-.008 2.698-.04.697-.032 1.173-.142 1.59-.304.43-.167.794-.392 1.158-.756.364-.363.587-.729.755-1.159.161-.416.272-.892.304-1.589.032-.698.04-.92.04-2.698s-.008-2-.04-2.699c-.032-.697-.143-1.172-.304-1.588a3.212 3.212 0 0 0-.755-1.16 3.2 3.2 0 0 0-1.16-.755c-.417-.162-.892-.272-1.59-.304-.697-.032-.92-.04-2.698-.04H18Zm-.587 1.18H18c1.748 0 1.955.005 2.645.037.638.029.985.136 1.215.225.306.119.524.26.753.49.229.229.37.447.49.752.089.23.196.577.225 1.216.031.69.038.897.038 2.643 0 1.747-.007 1.955-.038 2.645-.03.638-.136.984-.226 1.215-.118.305-.26.523-.49.752-.229.229-.446.37-.752.49-.23.09-.577.195-1.215.225-.69.031-.897.038-2.645.038-1.747 0-1.955-.007-2.645-.038-.638-.03-.984-.136-1.215-.226a2.025 2.025 0 0 1-.753-.49c-.229-.229-.37-.446-.49-.752-.089-.23-.196-.577-.225-1.215-.031-.69-.038-.897-.038-2.645s.007-1.954.038-2.644c.03-.638.136-.985.226-1.216.118-.305.26-.523.49-.752.228-.23.447-.371.752-.49.23-.09.577-.196 1.215-.226.604-.027.838-.035 2.058-.037v.002Zm4.081 1.086a.785.785 0 1 0 0 1.571.785.785 0 0 0 0-1.571ZM18 14.639a3.361 3.361 0 1 0 0 6.723 3.361 3.361 0 0 0 0-6.723Zm0 1.18a2.182 2.182 0 1 1 0 4.363 2.182 2.182 0 0 1 0-4.364Z"/></svg>