<svg xmlns="http://www.w3.org/2000/svg" width="19" height="19" fill="none"><path fill="#0A033C" d="M15.85 15.694h-2.756V11.42c0-1.02-.018-2.331-1.434-2.331-1.435 0-1.655 1.11-1.655 2.257v4.348H7.25v-8.79h2.646v1.202h.037a2.887 2.887 0 0 1 1.107-1.067c.46-.25.98-.372 1.504-.353 2.793 0 3.308 1.82 3.308 4.186v4.822ZM4.14 5.704a1.61 1.61 0 0 1-.889-.268 1.587 1.587 0 0 1-.59-.71A1.57 1.57 0 0 1 3.008 3a1.605 1.605 0 0 1 1.743-.344c.293.12.542.323.718.583a1.573 1.573 0 0 1-.198 2 1.6 1.6 0 0 1-1.131.464Zm1.378 9.99h-2.76v-8.79h2.76v8.79ZM17.224.001H1.373a1.365 1.365 0 0 0-.964.383A1.338 1.338 0 0 0 0 1.329v15.76c.004.357.151.697.409.946.257.25.604.387.964.384h15.851c.361.004.709-.133.967-.383.259-.249.407-.59.412-.946V1.328a1.34 1.34 0 0 0-.412-.946A1.368 1.368 0 0 0 17.224 0"/></svg>