<svg xmlns="http://www.w3.org/2000/svg" width="332" height="336" fill="none"><path fill="#D9E0FC" d="M318.056 297.494c-1.452-.816-3.271-1.474-5.199-1.912-4.358-.986-9.216-1.059-13.952-1.12-41.036-.499-81.791-.682-122.84-.682-32.321-.255-64.63-.523-96.95-.681-15.197-.073-30.43-.134-45.578.572-6.273.292-12.804.767-17.991 2.703-5.188 1.935-8.483 5.758-5.847 8.85 4.382 5.113 19.066 4.821 27.549 4.833 65.411.097 130.835-.097 196.246-.304 21.897-.073 43.795-.134 65.656-.767 4.894-.146 9.947-.329 14.341-1.51 4.407-1.169 8.056-3.579 7.788-6.221-.134-1.436-1.392-2.727-3.223-3.761ZM320.266 184.252c-1.111.243-2.381.377-3.809.377-49.092 0-98.172 0-147.264-.012-24.546 0-49.092 0-73.626-.012-11.424 0-57.245 6.306-62.213-4.955-1.05-2.374-1.05-4.991-1.05-7.548 0-48.196.135-96.393.135-144.59v-5.125c0-3.603 3.222-6.525 7.189-6.525h244.276c11.681 0 43.661-5.43 43.661 9.825 0 28.986-.013 57.984-.013 86.97v44.496c-.012 9.434 4.334 24.53-7.286 27.099Z"/><path fill="#FF6652" d="M303.702 174.452c-4.479 3.068-12.767 1.327-19.664 1.327H21.966a2.237 2.237 0 0 1-2.246-2.24c-.012-28.718-.183-57.449-.244-86.167-.037-14.365-.037-28.718.024-43.084.037-9.398-3.808-30.045 2.527-37.398 1.782-2.057 24.778.487 27.646.487l37.008-.073c23.948-.049 47.896-.097 71.844-.158 32.175 0 64.362-.134 96.537-.207 16.929-.037 48.42.06 50.801.085 3.063.037 1.745 47.588 1.769 51.106.159 19.612.061 39.237-.122 58.849-.134 14.645-.341 29.29-.5 43.948a455.109 455.109 0 0 0-.049 5.843c.012 3.932-1.245 6.294-3.259 7.682Z"/><path fill="#9C4DF4" d="M297.782 159.892c-8.812-.231-17.649-.061-26.462-.061-8.825 0-17.65.012-26.462.012l-52.937.037c-35.104.024-70.221.036-105.325.134-9.899.024-19.81.048-29.709.085-9.887.024-19.847-.098-29.71.596-.573.037-.573.84 0 .889 8.801.621 17.65.511 26.463.584 8.825.073 17.65.049 26.463.073 17.65.049 35.287.061 52.937.086 35.104.048 70.22.073 105.324.097 9.899.012 19.81.012 29.709.024 9.899.013 19.81.207 29.709-.048 1.624-.037 1.636-2.472 0-2.508Z"/><path fill="#9C4DF4" d="M287.639 158.553a5.51 5.51 0 0 0-1.513-2.35 7.297 7.297 0 0 0-3.235-1.875c-.22-.073-.439-.146-.647-.219a5.53 5.53 0 0 0-2.88-.134 5.465 5.465 0 0 0-2.686.852l-1.464 1.133c-.708.657-1.209 1.424-1.489 2.325a3.528 3.528 0 0 0-.489 1.826 5.356 5.356 0 0 0 .135 2.873c.244.572.488 1.144.732 1.729a7.356 7.356 0 0 0 2.6 2.593c.195.134.378.268.573.402a7.337 7.337 0 0 0 3.699.998c.647-.085 1.294-.171 1.953-.256a7.403 7.403 0 0 0 3.234-1.875 5.393 5.393 0 0 0 1.514-2.349 5.482 5.482 0 0 0 .635-2.812c0-1.047-.208-1.985-.672-2.861Z"/><path fill="#fff" stroke="#000" stroke-miterlimit="10" stroke-width=".5" d="m250.387 222.295-200.506-2.958.793-206.944 199.127 1.534.586 208.368Z"/><path fill="#9C4DF4" d="M94.835 175.657c-.598 7.621-1.197 15.23-1.794 22.851-.086 1.034-.818 1.911-1.917 1.911-3.515.012-7.018.024-10.534.049l-9.447.036c-.83 0-1.697.012-2.441-.426-.818-.487-1.209-1.327-1.318-2.228-.159-1.473.012-3.031.049-4.516.122-6.282.353-12.564 1.05-18.821.121-1.132 1.39-1.388 1.977-.731 1.025-.316 2.258-.17 3.27-.17 1.27 0 2.527.012 3.797.012 5.102.025 10.216.049 15.318.049 1.013 0 2.075.913 1.99 1.984Zm-5.493 20.952c.464-6.319.915-12.637 1.38-18.955-2.991.012-5.994.036-8.984.048l-5.554.037c-.952.012-1.892.012-2.844.012h-1.025c-.366.305-.83.487-1.318.511.097 2.034.158 4.079.195 6.124.049 2.934 0 5.868-.037 8.802l-.036 2.301c-.013.401.012.827.012 1.254.159.012.305.024.427.024l2.026-.012 15.758-.146ZM94.835 131.222c-.598 7.621-1.197 15.23-1.794 22.851-.086 1.035-.818 1.911-1.917 1.911-3.515.012-7.018.025-10.534.049l-9.447.036c-.83 0-1.697.013-2.441-.426-.818-.487-1.209-1.327-1.318-2.228-.159-1.473.012-3.031.049-4.516.122-6.282.353-12.563 1.05-18.821.121-1.132 1.39-1.388 1.977-.73 1.025-.317 2.258-.171 3.27-.171 1.27 0 2.527.012 3.797.012 5.102.025 10.216.049 15.318.049 1.013 0 2.075.913 1.99 1.984Zm-5.493 20.952c.464-6.318.915-12.637 1.38-18.955-2.991.012-5.994.037-8.984.049l-5.554.036c-.952 0-1.892.012-2.844.012h-1.025c-.366.305-.83.487-1.318.512.097 2.033.158 4.078.195 6.123.049 2.934 0 5.868-.037 8.802l-.036 2.301c-.013.402.012.828.012 1.254.159.012.305.024.427.024l2.026-.012 15.758-.146ZM94.835 86.788c-.598 7.62-1.197 15.229-1.794 22.85-.086 1.035-.818 1.911-1.917 1.911-3.515.013-7.018.025-10.534.049l-9.447.037c-.83 0-1.697.012-2.441-.426-.818-.487-1.209-1.327-1.318-2.228-.159-1.473.012-3.032.049-4.517.122-6.282.353-12.563 1.05-18.82.121-1.133 1.39-1.389 1.977-.731 1.025-.317 2.258-.17 3.27-.17 1.27 0 2.527.012 3.797.012 5.102.024 10.216.048 15.318.048 1.013 0 2.075.913 1.99 1.985Zm-5.493 20.951c.464-6.318.915-12.637 1.38-18.955-2.991.012-5.994.037-8.984.049l-5.554.036c-.952 0-1.892.013-2.844.013h-1.025c-.366.304-.83.486-1.318.51.097 2.034.158 4.08.195 6.124.049 2.934 0 5.868-.037 8.802l-.036 2.301c-.013.402.012.828.012 1.254.159.012.305.024.427.024l2.026-.012 15.758-.146Z"/><path fill="#969696" d="M202.906 89.113c-6.408-.17-12.829-.037-19.237-.025-6.347.013-12.706.013-19.053.025-12.828.012-25.657.073-38.473.134-3.576.012-7.153.036-10.729.048-3.625.013-7.299-.06-10.912.195-.464.037-.464.682 0 .706 3.186.22 6.42.158 9.618.183 3.21.036 6.408.036 9.619.048 6.347.037 12.706.061 19.053.098 12.828.06 25.657.049 38.473.073 7.213.012 14.439.17 21.641-.024.952-.013.952-1.437 0-1.461ZM158.147 96.04c-13.854-.159-27.708-.293-41.561-.293-3.955 0-7.922-.036-11.877.025-.756.012-.756 1.168 0 1.18 13.842.22 27.708.013 41.561-.072 3.955-.025 7.922-.146 11.877-.195.415 0 .415-.633 0-.645ZM200.684 103.405c-12.486-.231-24.985-.049-37.472-.025-12.486.025-24.985.037-37.472.061-7.055.013-14.097.025-21.152.146-.574.013-.574.877 0 .889 12.486.231 24.985.158 37.472.171 12.486.024 24.985.036 37.472.06 7.055.013 14.097.073 21.152-.06.806 0 .806-1.23 0-1.242ZM168.339 133.353c-4.224-.28-8.508-.049-12.743-.036l-12.743.036-25.474.073c-4.809.012-9.594.073-14.403.244-.342.012-.342.523 0 .535 8.483.28 16.979.244 25.474.268l25.474.073c2.343.012 4.674.012 7.018.025 2.453.012 4.931.109 7.385-.061.768-.037.768-1.108.012-1.157ZM194.057 143.129c-11.84-.341-23.704-.207-35.544-.232-11.73-.024-23.447-.036-35.177-.073l-9.997-.024c-3.32-.012-6.676-.158-9.996.097-.806.061-.806 1.194 0 1.254 2.953.232 5.932.11 8.885.11 2.967-.012 5.92-.012 8.886-.024l17.772-.037c11.73-.024 23.448-.036 35.177-.061 6.665-.012 13.329-.012 19.994-.207.512-.024.512-.791 0-.803ZM197.523 180.539c-12.365-.304-24.729-.158-37.094-.146-12.364 0-24.729.012-37.094.049-6.92.024-13.853.109-20.774.024-.806-.012-.806 1.254 0 1.254 12.365-.146 24.729.061 37.094.073 12.364 0 24.729.012 37.093.012 6.921 0 13.842.012 20.775-.158.708-.012.708-1.084 0-1.108ZM122.554 187.064c-6.542 0-13.072.134-19.602.195-.464 0-.464.706 0 .706 6.53.061 13.072.195 19.602.195.721.012.721-1.096 0-1.096ZM188.674 187.88c-7.239-.475-14.538-.268-21.788-.231-7.323.036-14.647.085-21.971.121-4.125.025-8.251.049-12.364.256-.464.024-.464.694 0 .706 7.25.365 14.525.268 21.787.305 7.324.036 14.647.085 21.971.085 4.126 0 8.251.024 12.365-.244.646-.036.659-.949 0-.998ZM160.612 195.05c-7.238-.377-14.537-.097-21.775-.073-7.189.024-14.403 0-21.592.256-4.113.146-8.251.097-12.365.109-.415 0-.415.645 0 .645 14.464.073 28.916.341 43.38.402 4.126.012 8.251.11 12.365-.109.781-.037.781-1.181-.013-1.23Z"/><path fill="#000" d="M234.226 39.516c-6.982-.547-14.159-.121-21.165-.121-6.616 0-13.231.012-19.835.012-13.45.012-26.889.012-40.34.024-13.451.012-26.89.037-40.34.098-13.598.06-27.451-.512-41 .657a2.277 2.277 0 0 0 0 4.553c13.549 1.169 27.402.597 41 .657 13.45.061 26.889.086 40.34.098 13.451.012 26.89.012 40.34.024 6.616 0 13.232.012 19.835.012 7.006 0 14.171.426 21.165-.121 3.845-.317 3.857-5.588 0-5.893ZM201.673 56.499c-2.234-1.765-4.004-1.449-6.835-1.449h-7.91l-16.478.012c-11.205.013-22.41.013-33.615.025l-32.956.024c-5.712 0-11.424.06-17.137.134-4.736.06-11.083-.852-15.38 1.303-1.134.572-1.134 2.386 0 2.958 4.31 2.167 10.632 1.242 15.38 1.302 5.493.073 10.986.122 16.478.134 11.205.013 22.41.013 33.615.025l32.956.024c5.713 0 11.425.012 17.137.012h7.91c2.758 0 4.626.292 6.835-1.449.867-.67.854-2.373 0-3.055Z"/><path fill="#FBC2AA" d="M150.75 149.763c-1.916-.535-3.442-2.666-4.223-4.431-.83-1.887-.671-4.358.916-5.673 1.013-.84 2.416-1.059 3.735-.925 4.088.45 7.238 4.114 8.361 8.071 1.122 3.944.646 8.157.17 12.235l-1.062 8.948c-.683 5.794.086 11.857.086 17.7 0 .731.024 1.486.378 2.119.659 1.168 2.149 1.497 3.479 1.704 6.384 1.023 12.95 2.252 19.444 2.021 5.212-.183 8.19-1.729 12.938 1.948 2.6 2.008 4.59 5.137 4.26 8.4-.183 1.753-1.013 3.396-2.136 4.772-4.431 5.393-12.34 6.123-19.334 5.953a153.293 153.293 0 0 1-24.607-2.617c-8.239-1.571-13.988-5.686-14.684-14.39-.659-8.242 1.917-16.471 4.162-24.299 2.088-7.28 6.164-13.988 8.032-21.207.036-.134.061-.231.085-.329Z"/><path fill="#FBC2AA" d="M197.011 197.692c-.061-.366-.122-.731-.183-1.084-.525-3.615-1.025-8.132 2.917-9.264 2.6-.755 7.153-.414 8.886-2.824.561-.78.72-1.754.854-2.691.208-1.339.403-2.69.611-4.029-7.556 1.29-10.705-5.454-11.657-11.76-.976-6.44-.769-14.475 4.919-18.785 3.625-2.751 8.703-3.409 12.963-1.802 4.259 1.607 7.592 5.381 8.8 9.764.891 3.238-.171 4.419-.354 7.767-.22 3.786.122 10.323-.085 14.109-.147 2.545.073 5.515 1.464 7.731.635 1.01 1.404 1.875 2.478 2.422.781.402 2.807.183 3.296.719 2.77 3.031 5.358 6.245 8.361 9.033-7.092 2.97-14.501 5.088-22.081 6.379-5.309.913-16.05 4.042-19.712-1.595-.806-1.242-1.209-2.654-1.477-4.09Z"/><path fill="#FF6652" d="M259.822 215.527c-.757-9.338-4.956-18.906-13.488-23.581-3.136-1.717-6.591-2.752-10.057-3.567-1.782-.426-3.589-.791-5.371-1.193-2.002-.451-2.404.024-3.771 1.522-2.82 3.116-7.275 4.504-11.462 4.066-2.648-.268-5.199-1.23-7.47-2.593-2.465-1.486-3.332-3.312-6.457-3.141a424.574 424.574 0 0 0-28.317 2.556c.695 8.181 1.245 19.771 2.954 27.793 4.98-.499 15.989-1.595 15.977-.085-.012 2.301.037 4.614.11 6.915.159 4.492.439 8.984.622 13.476.196 4.773.55 9.545.977 14.293a118.938 118.938 0 0 0 2.526 15.996c12.304 4.09 26.341 3.092 39.535 1.899 3.76-.341 7.666-.718 10.925-2.629 9.154-5.381 9.545-21.305 10.851-30.569 1.013-7.134 2.502-13.842 1.916-21.158Z"/><path fill="#000" d="M165.434 308.572a14.4 14.4 0 0 1 .5-.682c3.186-4.078 8.691-6.732 13.195-9.131 4.968-2.641 10.521-4.82 16.246-4.492 5.163.292 12.328 3.786 13.402 9.24.122.621.171 1.279-.073 1.851-.61 1.436-2.551 1.558-4.114 1.57-6.664.061-13.072 2.106-19.297 4.31-3.198 1.132-6.384 2.337-9.63 3.372-2.893.925-9.924 4.979-11.95.767-1.111-2.301.439-4.931 1.721-6.805Z"/><path fill="#9C4DF4" d="M136.543 253.814c2.697-2.971 6.53-4.894 10.46-5.637 5.517-1.035 11.217-.036 16.637 1.461 11.473 3.153 22.227 8.461 33.749 11.419 5.114 1.315 8.447.828 13.439.426 6.335-.511 12.84.11 19.212-.268 5.956-.353 12.401-.815 17.979.828.732-.487 1.465-.962 2.197-1.449 6.225-4.078 12.438-8.132 20.25-6.647 6.139 1.169 12.071 4.274 15.867 9.314 4.04 5.356 2.832 12.356-.793 17.7-3.003 4.42-7.433 7.682-12.023 10.421-15.831 9.472-33.127 15.278-51.814 13.988-2.502-.17-5.444-.207-7.25 1.802-.671.755-1.074 4.882-2.576 4.699-1.855-.219-5.419-.731-7.164-1.364-9.448-3.396-18.883-6.805-28.33-10.201-8.3-2.995-16.649-6.002-24.205-10.543-6.542-3.92-12.462-9.228-15.928-16.106-2.502-4.955-4.553-11.48-1.941-16.63a14.823 14.823 0 0 1 2.234-3.213Z"/><path stroke="#000" stroke-miterlimit="10" stroke-width=".5" d="M253.731 268.057c-5.309 2.642-10.863 4.334-15.953 7.475-5.077 3.129-9.886 6.781-15.416 9.155-3.576 1.534-8.776 2.13-12.206 3.834"/><path fill="#FBC2AA" d="M214.575 306.454c.012-.013.012-.037.024-.049.501-1.144.989-2.289 1.489-3.433.989-2.277 1.978-4.541 2.954-6.817.11-.256 8.593 4.041 9.326 4.638.329.268.646.56.854.925.293.499.354 1.096.427 1.668.196 1.607.44 3.25.134 4.845-.305 1.595-1.293 3.165-2.831 3.677-1.172.389-2.441.109-3.638-.159-2.282-.523-4.516-1.01-6.762-1.668-.647-.194-2.343-.255-2.807-.718-.586-.572.574-2.301.83-2.909Z"/><path fill="#000" d="M224.023 297.895c.622.085 1.269.11 1.94.049 1.367-.11 2.71-.499 4.077-.475 2.722.049 3.906 2.167 5.041 4.31 2.002 3.786 5.615 6.549 8.544 9.593 3.674 3.81 5.798 7.401 5.2 12.855-.208 1.924-.989 4.127-2.856 4.651-1.721.487-3.418-.718-4.797-1.851-3.747-3.067-7.507-6.123-11.254-9.191-1.709-1.4-3.454-3.263-5.395-4.31-1.233-.657-2.637-1.144-3.918-1.789 1.379-4.553 2.539-9.167 3.418-13.842Z"/><path fill="#FBC2AA" d="M204.871 270.541c-.683-.341-1.208-.962-1.611-2.119-.683-1.947-.281-4.248.818-5.965 1.416-2.215 4.016-3.92 6.591-4.455 2.649-.56 5.212-1.498 7.909-2.046 1.941-.389 3.845-.925 5.749-1.46 5.823-1.632 12.096-2.874 17.626-5.308.342-.146.683-.317.879-.633.256-.426.146-.962.024-1.449a562.213 562.213 0 0 1-5.102-22.424c-.525-2.557-1.038-5.138-1.013-7.743.049-4.736 1.953-9.423 5.224-12.856 2.002-2.106 4.772-3.798 7.653-3.469 2.368.28 4.406 1.911 5.749 3.895 1.343 1.985 2.063 4.286 2.783 6.55 2.417 7.657 5.224 15.412 6.31 23.374.281 2.082.269 4.188.257 6.282-.037 6.026-.196 12.429-3.516 17.457-10.936 16.508-36.3 14.475-53.303 12.892-1.269-.085-2.246-.134-3.027-.523Z"/><path fill="#000" d="M209.68 142.313c-3.076.462-6.03 1.704-8.507 3.725-2.759 2.252-3.626 4.638-4.199 8.169-.037.231-.061.486.073.681.147.207.439.256.696.292 4.394.524 8.812.901 13.243 1.133.488.024.989.048 1.44-.134 1.123-.451 1.563-1.972 2.71-2.362a12.812 12.812 0 0 1-.305 4.419c-.159.633-.366 1.303-.159 1.924.415 1.253 1.892 1.229 2.844 1.801 1.184.706 2.332 2.143 2.783 3.433.598 1.705.867 3.567 1.917 5.077.268.389.585.742.891 1.095.573.658 1.135 1.315 1.708 1.973.354-.268.525-.694.672-1.096 1.196-3.214 2.465-6.403 3.222-9.739.684-2.995.659-6.184-.122-9.155-.342-1.339-.964-2.69-1.587-3.92-.341-.682-.793-1.4-1.233-2.033-.134-.195-1.452-1.911-1.684-1.765.293-.195.659-.56.525-.95-.159-.462-1.233-.134-1.526.025.171-.268.415-.499.586-.767.171-.268.281-.621.147-.913-.086-.183-.257-.317-.44-.414-.476-.232-1.05-.171-1.501.085-.476.268-.879.755-.989 1.278-3.613-1.582-7.214-2.459-11.205-1.862Z"/><path stroke="#000" stroke-miterlimit="10" stroke-width=".5" d="M162.26 258.878c10.632 4.796 19.188 13.123 28.855 19.624 9.032 6.063 19.041 10.519 28.989 14.95-.525 1.132-.732 2.264-1.245 3.396"/><path stroke="#1C1C1B" stroke-miterlimit="10" stroke-width=".5" d="M207.667 168.389c-.635 2.07-3.174 3.324-5.2 2.581"/><path fill="#FBC2AA" d="M218.395 167.78c3.918.974 6.36-3.14 5.163-5.831-1.66-3.737-6.908-3.116-7.872.816"/><path stroke="#1C1C1B" stroke-miterlimit="10" stroke-width=".5" d="M220.397 161.645c-.732-.207-1.587-.085-2.209.316-.623.402-.977 1.06-.952 1.705"/><path fill="#FF6652" d="M249.569 195.988c-7.153.754-13.707 5.709-16.356 12.393-2.746 6.939-1.379 14.73.025 22.059 4.613-.134 8.69.182 13.279-.718 5.957-1.169 11.743-3.007 17.345-5.272-1.66-10.603-4.736-20.768-12.328-28.414-.732-.754-.915-.158-1.965-.048Z"/><path fill="#9C4DF4" d="M168.925 127.412c-5.932 2.593-11.303 5.941-16.393 9.934-2.465 1.935-4.796 4.114-6.993 6.342-1.172 1.193-2.283 2.459-3.382 3.713-.231-.694-.463-1.375-.695-2.057a82.51 82.51 0 0 0-2.515-6.513 83.38 83.38 0 0 0-2.844-5.99c-1.074-2.057-2.111-4.808-4.308-5.843-1.514-.718-2.869.182-3.076 1.765-.305 2.337 1.55 4.504 2.6 6.477a84.347 84.347 0 0 1 2.88 5.977 80.068 80.068 0 0 1 2.222 5.697c.732 2.082 1.245 4.261 2.014 6.319.756 2.021 3.393 2.52 4.626.596 1.599-2.508 3.845-4.784 5.883-6.951 2.087-2.216 4.272-4.31 6.506-6.379a156.454 156.454 0 0 1 14.268-11.712c.843-.608.147-1.789-.793-1.375Z"/><path fill="#000" d="M238.156 276.372h-60.26a1.603 1.603 0 0 1-1.599-1.595c0-.877.72-1.595 1.599-1.595h60.26c.879 0 1.599.718 1.599 1.595 0 .876-.72 1.595-1.599 1.595Z"/><path fill="#000" d="M229.221 274.205H176.48l-10.949-26.978a1.34 1.34 0 0 1 1.245-1.838h49.849a1.34 1.34 0 0 1 1.245.84l11.351 27.976Z"/><path stroke="#fff" stroke-miterlimit="10" stroke-width=".5" d="M191.823 259.815c.561 1.461 2.453 2.642 4.223 2.642s2.759-1.181 2.197-2.642c-.561-1.461-2.453-2.642-4.223-2.642s-2.759 1.181-2.197 2.642Z"/><path fill="#000" d="M209.705 177.641c.097 1.011.012 2.021-.086 3.019.061-.012.135-.036.196-.048 2.075-.646 3.783-2.326 4.662-4.31a11.048 11.048 0 0 1-4.772 1.339Z"/><path fill="#fff" d="M150.848 149.921c-2.283-1.558-4.589-3.128-6.432-5.174-.379-.414-.733-.876-.83-1.424-.098-.548.183-1.193.72-1.339.598-.158 1.147.341 1.611.767a11.049 11.049 0 0 0 6.432 2.873"/><path stroke="#1C1C1B" stroke-miterlimit="10" stroke-width=".5" d="M150.848 149.921c-2.283-1.558-4.589-3.128-6.432-5.174-.379-.414-.733-.876-.83-1.424-.098-.548.183-1.193.72-1.339.598-.158 1.147.341 1.611.767a11.049 11.049 0 0 0 6.432 2.873"/><path fill="#FF6652" d="M230.479 318.907c.098-.06.195-.133.293-.207.11-.085.232-.133.354-.194.244-.11.476-.219.72-.317-.097.049-.207.085-.305.134a6.359 6.359 0 0 0 1.282-.73c.097-.073.183-.146.28-.232.159-.146.318-.28.537-.341.391-.121.879.074 1.087.427.183.316.171.669.012.986-.037.073-.085.134-.122.207a4.402 4.402 0 0 1-.269.389c-.244.329-.5.645-.793.925-.293.293-.61.56-.964.767-.22.134-.452.28-.708.329-.256.061-.525.085-.781.11-.11-.013-.22-.025-.318-.049a.927.927 0 0 1-.415-.219c-.195-.159-.378-.378-.439-.633-.134-.536.085-1.047.549-1.352ZM227.562 315.56a1.38 1.38 0 0 1 .317-.548c.269-.304.55-.609.818-.925a.887.887 0 0 1 .427-.268.937.937 0 0 1 .513-.11c.183-.012.354.037.513.11.158.049.305.146.427.268.073.085.134.182.207.268.123.206.184.426.184.657-.013.122-.037.231-.049.353a1.298 1.298 0 0 1-.342.584c-.305.28-.61.548-.928.816a.881.881 0 0 1-.403.256 1.05 1.05 0 0 1-.476.109.816.816 0 0 1-.476-.109.883.883 0 0 1-.402-.256c-.061-.085-.135-.17-.196-.256a1.266 1.266 0 0 1-.134-.949ZM223.949 312.382l.586-.876a.88.88 0 0 1 .305-.329.992.992 0 0 1 .403-.219.908.908 0 0 1 .476-.025.83.83 0 0 1 .439.146c.086.061.159.122.245.183.146.146.256.329.305.524.012.109.024.206.049.316 0 .219-.061.414-.159.597l-.586.876a.88.88 0 0 1-.305.329 1.01 1.01 0 0 1-.403.219.898.898 0 0 1-.476.024.814.814 0 0 1-.439-.146c-.086-.061-.159-.122-.244-.182a1.148 1.148 0 0 1-.306-.524l-.036-.316a.946.946 0 0 1 .146-.597ZM181.485 309.57c.073-.256.268-.523.5-.645.256-.134.562-.195.842-.11l.257.11c.158.097.293.231.39.389.183.244.379.487.562.731.097.121.207.231.305.341.049.048.097.097.134.146.086.085.171.182.232.292.061.097.11.231.146.341.086.268.159.535.245.803a.836.836 0 0 1-.306.889c-.256.195-.647.243-.939.061-.196-.122-.379-.244-.574-.365-.049-.037-.098-.061-.147-.098a1.517 1.517 0 0 1-.476-.487c-.073-.109-.134-.219-.207-.328-.256-.427-.574-.816-.867-1.218-.146-.231-.158-.609-.097-.852ZM186.148 307.975c.073-.256.268-.523.5-.645.378-.207.854-.365 1.123.049.427.669.854 1.339 1.294 2.008.342.536.695 1.157.488 1.753a.789.789 0 0 1-.391.475c-.268.122-.585.037-.854-.109-.464-.256-.72-.707-1.001-1.145-.073-.109-.134-.219-.207-.328-.257-.427-.574-.816-.867-1.218-.134-.219-.159-.596-.085-.84ZM177.2 311.396a.946.946 0 0 1 .269-.414c.244-.231.574-.389.915-.377.33.012.696.122.916.377.488.585.976 1.157 1.452 1.741.122.122.22.256.269.414a.89.89 0 0 1 .11.499c.012.183-.037.341-.11.499a.935.935 0 0 1-.269.414c-.244.232-.573.39-.915.378-.33-.013-.696-.122-.916-.378-.488-.584-.976-1.156-1.452-1.741a1.007 1.007 0 0 1-.269-.414.88.88 0 0 1-.109-.499.881.881 0 0 1 .109-.499Z"/><path fill="#000" d="M284.295 269.067c-.561 1.12-.268 2.52-.805 3.653-.391.84-1.172 1.424-1.709 2.191-.83 1.193-.964 2.873-.171 4.09.781 1.218 2.502 1.79 3.808 1.145 1.038-.512 1.636-1.632 2.051-2.715.854-2.24 1.757-5.746 1.025-8.132-.61-1.936-3.149-2.35-4.199-.232ZM134.663 260.728c.94-.754 2.331-.937 3.418-.377 1.074.56 1.745 1.838 1.513 3.019-.122.645-.488 1.254-.512 1.911-.037.84.476 1.607.744 2.411.403 1.193.232 2.605-.61 3.53-.842.938-2.368 1.242-3.418.56-1.111-.73-1.391-2.203-1.599-3.518-.366-2.362-1.819-5.71.464-7.536ZM194.435 214.589c-.11-.109-.33-.134-.439 0-.293.366-.611.731-.879 1.108l-.403.548c-.134.183-.293.365-.415.572-.147.244.183.487.391.292.158-.158.305-.341.451-.511l.44-.511c.305-.341.573-.706.854-1.059.098-.134.122-.305 0-.439ZM240.183 230.208a8.165 8.165 0 0 0-2.698.511 802.085 802.085 0 0 0-.818-5.502c-.293-1.936-.647-3.871-.915-5.819-.012-.098-.183-.073-.171.024.22 1.984.354 3.969.586 5.953.232 1.948.488 3.896.757 5.844.024.158.244.267.378.219a7.955 7.955 0 0 1 2.868-.597c.428-.012.428-.633.013-.633Z"/><path fill="#9C4DF4" d="M107.212 292.721c-1.745 3.239-5.456 4.809-8.861 5.6-1.026.244-2.063.426-3.1.621-.819.146-1.685.244-2.466.548-1.782.682.17 1.777 1.074 2.179.537.244.671 1.023.39 1.498-.33.535-.952.633-1.5.389-.745-.341-1.563-.84-2.137-1.485l-1.16 3.896H71.95l-1.367-24.689 26.39-.438-.696 2.325c2.917-.84 6.505-1.157 9.117.596 2.954 1.997 3.442 5.929 1.819 8.96Zm-3.003-6.963c-2.429-1.704-5.98-1.059-8.593-.207-.024.012-.048.024-.073.024l-3.552 11.87c.61-.231 1.282-.39 1.88-.511 3.418-.694 7.287-1.181 9.936-3.689 1.989-1.875 3.063-5.612.402-7.487Z"/><path fill="#000" d="M91.906 286.951c-.55 1.923-1.099 3.835-1.575 5.77-.097.39.476.536.598.159.623-1.9 1.172-3.823 1.721-5.734.135-.463-.61-.658-.744-.195ZM89.428 296.203c-.28.962-.561 1.912-.842 2.873-.28.962-.488 1.936-.732 2.898-.098.401.488.56.61.17.305-.949.647-1.899.915-2.849l.806-2.885c.134-.487-.623-.694-.757-.207ZM88.415 293.44c-.098-.025-.232.024-.256.146-.073.414-.134.828-.208 1.229-.012.11.025.232.147.256.097.024.232-.024.256-.146.073-.414.134-.828.208-1.23.012-.109-.037-.231-.147-.255ZM260.628 251.646c-.159 2.265-1.209 4.371-2.759 6.002-.183.195.098.463.293.292 1.77-1.594 2.746-3.92 2.82-6.294 0-.231-.342-.219-.354 0ZM145.831 201.916c-.94-.426-1.88-.864-2.819-1.278-.196-.085-.379.207-.171.292.94.438 1.879.852 2.819 1.278.196.086.379-.207.171-.292Z"/><path fill="#9C4DF4" d="M83.886 230.123c-2.453 3.092-5.443 5.722-8.092 8.644-2.807 3.092-4.968 6.707-7.775 9.8a32.486 32.486 0 0 1-8.557 6.72c-2.258 1.229-7.518 4.187-10.204 3.53-5.2-1.29-1.306-10.019.33-12.892 1.953-3.445 4.7-6.428 7.604-9.094 3.04-2.776 6.335-5.247 9.606-7.731 3.674-2.8 7.336-5.587 11.01-8.387.891-.67 1.758-1.376 2.673-2.021.757-.536 1.587-.974 2.515-1.084 1.599-.17 3.051.877 3.82 2.216 2.014 3.518-.781 7.596-2.93 10.299ZM28.252 235.711c.745-3.993 2.368-7.767 3.296-11.711 1.233-5.235 1.233-10.677 2.197-15.96.964-5.284 3.137-10.701 7.53-13.793 1.221-.852 2.613-1.522 4.09-1.632 2.673-.207 5.224 1.449 6.737 3.665 1.502 2.203 2.124 4.894 2.49 7.548 1.453 10.433-.598 21.328-5.76 30.52-1.612 2.873-3.516 5.575-4.92 8.546-1.867 3.932-2.844 8.266-3.039 12.612-.085 1.887-.049 3.859-.879 5.563-.793 1.656-3.698 4.176-5.7 3.117-1.782-.95-3.015-6.538-3.65-8.339-2.233-6.428-3.661-13.343-2.392-20.136ZM10.749 235.638c-.366-1.948-.671-4.188.61-5.698 1.77-2.093 5.334-1.229 7.25.731 2.21 2.252 3.125 5.478 3.406 8.619.28 3.141.024 6.306.268 9.435.379 4.808 1.941 9.422 2.954 14.134.928 4.285-.83 7.207-4.015 2.97-2.16-2.861-3.784-6.172-5.115-9.483-2.648-6.647-4.028-13.72-5.358-20.708Z"/><path fill="#1C1C1B" d="M70.484 232.655c-.964 1.753-2.05 3.397-3.344 4.919-1.294 1.509-2.722 2.909-4.187 4.26-2.941 2.703-6.115 5.162-8.91 8.023-1.343 1.376-2.6 2.837-3.674 4.431-1.257 1.863-2.185 3.896-2.893 6.026-.842 2.52-1.477 5.113-2.172 7.682-.733 2.678-1.465 5.369-2.197 8.047-.794 2.922-1.587 5.831-2.222 8.79a73.527 73.527 0 0 0-.793 4.346c-.098.681-.171 1.375-.244 2.069-.037.378-.061.743-.086 1.12-.012.146-.012.292-.012.439.037-.341.098-.682.134-.999.098-.767.208-1.534.33-2.301.208-1.302.464-2.593.745-3.871.573-2.581 1.281-5.113 1.99-7.657 1.452-5.223 2.83-10.47 4.369-15.656.696-2.337 1.526-4.638 2.795-6.744 1.013-1.668 2.234-3.19 3.564-4.614 2.722-2.898 5.847-5.369 8.85-7.974 3.27-2.849 6.688-5.99 8.617-9.946.207-.451-.415-.828-.66-.39ZM39.714 293.403c.024-.195.024-.402.036-.609a2.593 2.593 0 0 0-.036.609Z"/><path fill="#1C1C1B" d="M39.726 293.768c-.012-.121-.012-.243-.012-.365a3.006 3.006 0 0 1-.061.353c-.025.061.073.061.073.012ZM38.163 241.068c.354-4.663 1.184-9.301 2.795-13.708.05-.134-.158-.195-.207-.061-2.966 7.791-3.405 16.179-3.308 24.433.049 4.249.232 8.497.269 12.746a135.66 135.66 0 0 1-.489 13.184c-.402 4.639-.988 9.253-1.599 13.866-5.09-10.749-9.74-21.706-13.866-32.857a396.274 396.274 0 0 1-3.503-9.885c-.146-.426-.817-.244-.683.182a390.55 390.55 0 0 0 13.512 34.599 354.561 354.561 0 0 0 4.418 9.508c.183.389.684.133.72-.195 1.136-8.875 2.198-17.762 2.137-26.722-.062-8.339-.83-16.715-.196-25.09Z"/><path fill="#FF6652" d="M21.429 279.294c1.953 8.972 3.283 18.37 1.88 27.403 3.149.012 19.029.098 24.143.049-.061-.791-.122-1.571-.159-2.362-.293-5.6.074-11.236 1.746-16.617.402-1.303 1.245-5.539 1.782-6.805l-.098-1.668H21.43Z"/><path fill="#1A0400" d="m51.944 274.315-31.406.048c-.268 0-.525.025-.781.073v7.244c.256.049.512.073.781.073l30.747-.061.659-7.377Z"/><path fill="#1C1C1B" d="M46.244 285.308c-.44.511-.782 1.156-1.087 1.753a19.426 19.426 0 0 0-.805 1.862 15.562 15.562 0 0 0-.916 3.993c-.048.573.916.719 1.026.134.231-1.266.537-2.544.952-3.774.207-.608.451-1.205.72-1.801.256-.585.586-1.157.83-1.753.159-.39-.452-.731-.72-.414ZM44.022 296.544c.012-.414-.635-.414-.647 0-.073 2.094-.476 4.163-.415 6.269.025.67.952.633 1.013 0 .232-2.093-.024-4.175.05-6.269ZM41.984 304.908c-2.173-.353-4.407-.463-6.591-.195-.733.085-.599 1.096.134.998 2.111-.28 4.248-.341 6.36-.097.402.048.5-.645.097-.706Z"/><path fill="#D9E0FC" d="M297.575 213.299c-2.197.974-4.956 2.788-5.285 5.381-.098.767-1.294 1.108-1.477.195-.281-1.388-.904-2.654-1.929-3.653-1.062-1.046-2.49-1.497-3.637-2.434-.354-.292-.159-.962.281-1.047 2.245-.439 4.662-1.668 5.663-3.762a6.268 6.268 0 0 1-.232-1.193c-.049-.56.464-1.023.977-1.108.573-.085 1.049.28 1.232.804.489 1.424 1.184 2.678 2.051 3.847.732.633 1.562 1.18 2.344 1.716.402.292.549 1.023.012 1.254ZM305.948 227.567a37.16 37.16 0 0 0-1.636-1.473c.293-.146.599-.305.892-.463.39-.219.549-.779.305-1.156-.269-.426-.721-.487-1.16-.305-.134.061-.268.122-.39.183.158-.974.329-1.96.549-2.934.171-.767-.989-1.096-1.184-.329-.281 1.12-.598 2.24-.903 3.348-.525-.45-1.05-.913-1.575-1.363-.281-.244-.696-.268-.964 0a.684.684 0 0 0 0 .961c.5.536 1.001 1.072 1.489 1.62-.244.133-.501.267-.732.426-.391.243-.818.438-1.233.645-.366.182-.476.706-.281 1.047.22.377.671.462 1.05.268.378-.195.769-.414 1.159-.56.122-.049.232-.098.342-.146-.061.243-.122.487-.171.718-.195.815-.488 1.655-.525 2.495-.049 1.181 1.697 1.364 2.026.268.22-.754.22-1.582.318-2.361.024-.195.061-.39.085-.597.354.377.72.755 1.099 1.132.378.365 1.062.414 1.44 0 .366-.389.403-1.035 0-1.424ZM30.266 60.65c-1.599-.706-2.783-1.972-3.405-3.591-.22-.584-1.013-.62-1.22 0-.27.791-.733 1.497-1.258 2.13-.024.037-.049.074-.073.098-.476.401-1.026.742-1.624.937-.39.122-.415.706 0 .816.818.219 1.526.548 2.124 1.156.574.597.94 1.327 1.074 2.13.11.658 1.111.378 1.013-.28-.11-.693.623-1.204 1.148-1.484.72-.39 1.489-.719 2.246-1.06.305-.134.305-.706-.025-.852ZM22.04 43.716c.378.159.866.487.695.853-.098.207-.342.28-.562.34-2.294.56-6.53 1.437-6.383 4.627.024.681-1.001.79-1.172.158-.598-2.338-2.026-4.456-4.199-5.576-.488-.256-.22-.925.256-.962 1.221-.085 2.38-.584 3.308-1.363 1.111-.925 1.392-1.449 1.672-2.812.11-.548.428-1.12.977-1.254.098-.024.22-.037.317.012.196.073.281.304.342.5.757 2.19 2.221 4.211 4.272 5.27.171.061.318.134.476.207ZM270.441 77.049c-.574-.353-1.562-.45-1.965-1.01-.72-1.023 1.037-.987 1.526-1.12.903-.244 1.635-.938 2.124-1.742.488-.803.756-1.716 1.013-2.617.61.329.732 1.108.988 1.753.44 1.096 1.441 1.9 2.576 2.191.403.098 2.587.573 1.074 1.352-1.013.511-2.161.95-2.991 1.753-.524.511-1.306 2.958-1.904 2.86-.268-.036-.464-.255-.586-.498-.109-.244-.158-.512-.231-.767a3.647 3.647 0 0 0-.66-1.279 3.697 3.697 0 0 0-.964-.876ZM13.568 82.028c-2.526.815-3.93 3.274-4.552 5.685-.184.682-1.294.548-1.245-.17.073-1.279-.403-2.496-1.221-3.47-.977-1.169-2.16-1.522-3.515-2.13-.196-.086-.428-.207-.464-.427-.037-.207.134-.401.305-.523.574-.39 1.318-.353 2.002-.487 1.635-.304 3.015-1.68 3.344-3.3.073-.34.098-.705.244-1.022.147-.316.476-.584.83-.535.427.06.647.523.794.925.293.816.488 1.582 1.11 2.203.745.743 1.648 1.327 2.551 1.838.598.341.428 1.218-.183 1.413Z"/></svg>