<svg xmlns="http://www.w3.org/2000/svg" width="114" height="30" fill="none"><path fill="#0A033C" d="M48.64 6.81V3.39H33.13V24h15.51v-3.42H36.88v-5.37h10.65v-3.42H36.88V6.81h11.76Zm15.262-3.78v7.86c-1.23-1.74-3.09-2.76-5.37-2.76-4.11 0-7.11 3.36-7.11 8.1 0 4.77 3 8.13 7.11 8.13 2.28 0 4.14-1.02 5.37-2.76V24h3.66V3.03h-3.66Zm-4.38 18.21c-2.61 0-4.47-2.1-4.47-5.01 0-2.91 1.86-4.98 4.47-4.98 2.58 0 4.38 2.07 4.38 4.98 0 2.91-1.8 5.01-4.38 5.01Zm22.66-12.75v9.81c-.24 1.65-1.83 2.94-3.75 2.94s-3.27-1.5-3.27-3.6V8.49h-3.54v9.87c0 3.51 2.37 6 5.76 6 2.04 0 3.84-.99 4.8-2.43V24h3.66V8.49h-3.66ZM95.065 24h3.45l6.57-15.51h-3.9l-4.41 11.28-4.5-11.28h-3.87L95.065 24ZM109.49 6.15c1.14 0 2.07-.99 2.07-2.1s-.93-2.07-2.07-2.07c-1.17 0-2.1.96-2.1 2.07 0 1.11.93 2.1 2.1 2.1ZM107.629 24h3.66V8.49h-3.66V24Z"/><rect width="25" height="30" fill="#FF6652" rx="5"/><path fill="#fff" d="M5.753 8.125h-.001a.641.641 0 0 0-.64.644v9.658c0 .354.288.643.644.644 1.5.004 4.011.316 5.744 2.13V11.093c0-.12-.03-.233-.088-.326-1.423-2.291-4.156-2.639-5.659-2.642ZM18.889 18.427V8.77a.641.641 0 0 0-.64-.644h-.002c-1.503.003-4.236.351-5.658 2.642a.617.617 0 0 0-.089.326V21.2c1.733-1.814 4.245-2.126 5.744-2.13.356 0 .645-.29.645-.644Z"/><path fill="#fff" d="M20.356 10.352h-.467v8.075c0 .905-.737 1.642-1.643 1.644-1.271.003-3.368.252-4.853 1.657 2.568-.628 5.276-.22 6.819.132a.643.643 0 0 0 .788-.627V10.996a.645.645 0 0 0-.644-.644ZM4.111 18.427v-8.075h-.467a.645.645 0 0 0-.644.644v10.236a.642.642 0 0 0 .788.628c1.543-.352 4.25-.76 6.82-.132-1.486-1.405-3.583-1.654-4.854-1.657a1.648 1.648 0 0 1-1.643-1.644Z"/></svg>