<svg xmlns="http://www.w3.org/2000/svg" width="180" height="185" fill="none"><path fill="#FF6652" d="M1.506 8.822V7.464h2.296V5.14h1.4v2.324h2.296v1.358H5.202v2.408h-1.4V8.822H1.506ZM20.506 8.822V7.464h2.296V5.14h1.4v2.324h2.296v1.358h-2.296v2.408h-1.4V8.822h-2.296ZM39.506 8.822V7.464h2.296V5.14h1.4v2.324h2.296v1.358h-2.296v2.408h-1.4V8.822h-2.296ZM58.506 8.822V7.464h2.296V5.14h1.4v2.324h2.296v1.358h-2.296v2.408h-1.4V8.822h-2.296ZM77.506 8.822V7.464h2.296V5.14h1.4v2.324h2.296v1.358h-2.296v2.408h-1.4V8.822h-2.296ZM96.506 8.822V7.464h2.296V5.14h1.4v2.324h2.296v1.358h-2.296v2.408h-1.4V8.822h-2.296ZM115.506 8.822V7.464h2.296V5.14h1.4v2.324h2.296v1.358h-2.296v2.408h-1.4V8.822h-2.296ZM134.506 8.822V7.464h2.296V5.14h1.4v2.324h2.296v1.358h-2.296v2.408h-1.4V8.822h-2.296ZM153.506 8.822V7.464h2.296V5.14h1.4v2.324h2.296v1.358h-2.296v2.408h-1.4V8.822h-2.296ZM172.506 8.822V7.464h2.296V5.14h1.4v2.324h2.296v1.358h-2.296v2.408h-1.4V8.822h-2.296ZM1.506 27.822v-1.358h2.296V24.14h1.4v2.324h2.296v1.358H5.202v2.408h-1.4v-2.408H1.506ZM20.506 27.822v-1.358h2.296V24.14h1.4v2.324h2.296v1.358h-2.296v2.408h-1.4v-2.408h-2.296ZM39.506 27.822v-1.358h2.296V24.14h1.4v2.324h2.296v1.358h-2.296v2.408h-1.4v-2.408h-2.296ZM58.506 27.822v-1.358h2.296V24.14h1.4v2.324h2.296v1.358h-2.296v2.408h-1.4v-2.408h-2.296ZM77.506 27.822v-1.358h2.296V24.14h1.4v2.324h2.296v1.358h-2.296v2.408h-1.4v-2.408h-2.296ZM96.506 27.822v-1.358h2.296V24.14h1.4v2.324h2.296v1.358h-2.296v2.408h-1.4v-2.408h-2.296ZM115.506 27.822v-1.358h2.296V24.14h1.4v2.324h2.296v1.358h-2.296v2.408h-1.4v-2.408h-2.296ZM134.506 27.822v-1.358h2.296V24.14h1.4v2.324h2.296v1.358h-2.296v2.408h-1.4v-2.408h-2.296ZM153.506 27.822v-1.358h2.296V24.14h1.4v2.324h2.296v1.358h-2.296v2.408h-1.4v-2.408h-2.296ZM172.506 27.822v-1.358h2.296V24.14h1.4v2.324h2.296v1.358h-2.296v2.408h-1.4v-2.408h-2.296ZM1.506 46.822v-1.358h2.296V43.14h1.4v2.324h2.296v1.358H5.202v2.408h-1.4v-2.408H1.506ZM20.506 46.822v-1.358h2.296V43.14h1.4v2.324h2.296v1.358h-2.296v2.408h-1.4v-2.408h-2.296ZM39.506 46.822v-1.358h2.296V43.14h1.4v2.324h2.296v1.358h-2.296v2.408h-1.4v-2.408h-2.296ZM58.506 46.822v-1.358h2.296V43.14h1.4v2.324h2.296v1.358h-2.296v2.408h-1.4v-2.408h-2.296ZM77.506 46.822v-1.358h2.296V43.14h1.4v2.324h2.296v1.358h-2.296v2.408h-1.4v-2.408h-2.296ZM96.506 46.822v-1.358h2.296V43.14h1.4v2.324h2.296v1.358h-2.296v2.408h-1.4v-2.408h-2.296ZM115.506 46.822v-1.358h2.296V43.14h1.4v2.324h2.296v1.358h-2.296v2.408h-1.4v-2.408h-2.296ZM134.506 46.822v-1.358h2.296V43.14h1.4v2.324h2.296v1.358h-2.296v2.408h-1.4v-2.408h-2.296ZM153.506 46.822v-1.358h2.296V43.14h1.4v2.324h2.296v1.358h-2.296v2.408h-1.4v-2.408h-2.296ZM172.506 46.822v-1.358h2.296V43.14h1.4v2.324h2.296v1.358h-2.296v2.408h-1.4v-2.408h-2.296ZM1.506 65.822v-1.358h2.296V62.14h1.4v2.324h2.296v1.358H5.202v2.408h-1.4v-2.408H1.506ZM20.506 65.822v-1.358h2.296V62.14h1.4v2.324h2.296v1.358h-2.296v2.408h-1.4v-2.408h-2.296ZM39.506 65.822v-1.358h2.296V62.14h1.4v2.324h2.296v1.358h-2.296v2.408h-1.4v-2.408h-2.296ZM58.506 65.822v-1.358h2.296V62.14h1.4v2.324h2.296v1.358h-2.296v2.408h-1.4v-2.408h-2.296ZM77.506 65.822v-1.358h2.296V62.14h1.4v2.324h2.296v1.358h-2.296v2.408h-1.4v-2.408h-2.296ZM96.506 65.822v-1.358h2.296V62.14h1.4v2.324h2.296v1.358h-2.296v2.408h-1.4v-2.408h-2.296ZM115.506 65.822v-1.358h2.296V62.14h1.4v2.324h2.296v1.358h-2.296v2.408h-1.4v-2.408h-2.296ZM134.506 65.822v-1.358h2.296V62.14h1.4v2.324h2.296v1.358h-2.296v2.408h-1.4v-2.408h-2.296ZM153.506 65.822v-1.358h2.296V62.14h1.4v2.324h2.296v1.358h-2.296v2.408h-1.4v-2.408h-2.296ZM172.506 65.822v-1.358h2.296V62.14h1.4v2.324h2.296v1.358h-2.296v2.408h-1.4v-2.408h-2.296ZM1.506 84.822v-1.358h2.296V81.14h1.4v2.324h2.296v1.358H5.202v2.408h-1.4v-2.408H1.506ZM20.506 84.822v-1.358h2.296V81.14h1.4v2.324h2.296v1.358h-2.296v2.408h-1.4v-2.408h-2.296ZM39.506 84.822v-1.358h2.296V81.14h1.4v2.324h2.296v1.358h-2.296v2.408h-1.4v-2.408h-2.296ZM58.506 84.822v-1.358h2.296V81.14h1.4v2.324h2.296v1.358h-2.296v2.408h-1.4v-2.408h-2.296ZM77.506 84.822v-1.358h2.296V81.14h1.4v2.324h2.296v1.358h-2.296v2.408h-1.4v-2.408h-2.296ZM96.506 84.822v-1.358h2.296V81.14h1.4v2.324h2.296v1.358h-2.296v2.408h-1.4v-2.408h-2.296ZM115.506 84.822v-1.358h2.296V81.14h1.4v2.324h2.296v1.358h-2.296v2.408h-1.4v-2.408h-2.296ZM134.506 84.822v-1.358h2.296V81.14h1.4v2.324h2.296v1.358h-2.296v2.408h-1.4v-2.408h-2.296ZM153.506 84.822v-1.358h2.296V81.14h1.4v2.324h2.296v1.358h-2.296v2.408h-1.4v-2.408h-2.296ZM172.506 84.822v-1.358h2.296V81.14h1.4v2.324h2.296v1.358h-2.296v2.408h-1.4v-2.408h-2.296ZM1.506 103.822v-1.358h2.296v-2.324h1.4v2.324h2.296v1.358H5.202v2.408h-1.4v-2.408H1.506ZM20.506 103.822v-1.358h2.296v-2.324h1.4v2.324h2.296v1.358h-2.296v2.408h-1.4v-2.408h-2.296ZM39.506 103.822v-1.358h2.296v-2.324h1.4v2.324h2.296v1.358h-2.296v2.408h-1.4v-2.408h-2.296ZM58.506 103.822v-1.358h2.296v-2.324h1.4v2.324h2.296v1.358h-2.296v2.408h-1.4v-2.408h-2.296ZM77.506 103.822v-1.358h2.296v-2.324h1.4v2.324h2.296v1.358h-2.296v2.408h-1.4v-2.408h-2.296ZM96.506 103.822v-1.358h2.296v-2.324h1.4v2.324h2.296v1.358h-2.296v2.408h-1.4v-2.408h-2.296ZM115.506 103.822v-1.358h2.296v-2.324h1.4v2.324h2.296v1.358h-2.296v2.408h-1.4v-2.408h-2.296ZM134.506 103.822v-1.358h2.296v-2.324h1.4v2.324h2.296v1.358h-2.296v2.408h-1.4v-2.408h-2.296ZM153.506 103.822v-1.358h2.296v-2.324h1.4v2.324h2.296v1.358h-2.296v2.408h-1.4v-2.408h-2.296ZM172.506 103.822v-1.358h2.296v-2.324h1.4v2.324h2.296v1.358h-2.296v2.408h-1.4v-2.408h-2.296ZM1.506 122.822v-1.358h2.296v-2.324h1.4v2.324h2.296v1.358H5.202v2.408h-1.4v-2.408H1.506ZM20.506 122.822v-1.358h2.296v-2.324h1.4v2.324h2.296v1.358h-2.296v2.408h-1.4v-2.408h-2.296ZM39.506 122.822v-1.358h2.296v-2.324h1.4v2.324h2.296v1.358h-2.296v2.408h-1.4v-2.408h-2.296ZM58.506 122.822v-1.358h2.296v-2.324h1.4v2.324h2.296v1.358h-2.296v2.408h-1.4v-2.408h-2.296ZM77.506 122.822v-1.358h2.296v-2.324h1.4v2.324h2.296v1.358h-2.296v2.408h-1.4v-2.408h-2.296ZM96.506 122.822v-1.358h2.296v-2.324h1.4v2.324h2.296v1.358h-2.296v2.408h-1.4v-2.408h-2.296ZM115.506 122.822v-1.358h2.296v-2.324h1.4v2.324h2.296v1.358h-2.296v2.408h-1.4v-2.408h-2.296ZM134.506 122.822v-1.358h2.296v-2.324h1.4v2.324h2.296v1.358h-2.296v2.408h-1.4v-2.408h-2.296ZM153.506 122.822v-1.358h2.296v-2.324h1.4v2.324h2.296v1.358h-2.296v2.408h-1.4v-2.408h-2.296ZM172.506 122.822v-1.358h2.296v-2.324h1.4v2.324h2.296v1.358h-2.296v2.408h-1.4v-2.408h-2.296ZM1.506 141.822v-1.358h2.296v-2.324h1.4v2.324h2.296v1.358H5.202v2.408h-1.4v-2.408H1.506ZM20.506 141.822v-1.358h2.296v-2.324h1.4v2.324h2.296v1.358h-2.296v2.408h-1.4v-2.408h-2.296ZM39.506 141.822v-1.358h2.296v-2.324h1.4v2.324h2.296v1.358h-2.296v2.408h-1.4v-2.408h-2.296ZM58.506 141.822v-1.358h2.296v-2.324h1.4v2.324h2.296v1.358h-2.296v2.408h-1.4v-2.408h-2.296ZM77.506 141.822v-1.358h2.296v-2.324h1.4v2.324h2.296v1.358h-2.296v2.408h-1.4v-2.408h-2.296ZM96.506 141.822v-1.358h2.296v-2.324h1.4v2.324h2.296v1.358h-2.296v2.408h-1.4v-2.408h-2.296ZM115.506 141.822v-1.358h2.296v-2.324h1.4v2.324h2.296v1.358h-2.296v2.408h-1.4v-2.408h-2.296ZM134.506 141.822v-1.358h2.296v-2.324h1.4v2.324h2.296v1.358h-2.296v2.408h-1.4v-2.408h-2.296ZM153.506 141.822v-1.358h2.296v-2.324h1.4v2.324h2.296v1.358h-2.296v2.408h-1.4v-2.408h-2.296ZM172.506 141.822v-1.358h2.296v-2.324h1.4v2.324h2.296v1.358h-2.296v2.408h-1.4v-2.408h-2.296ZM1.506 160.822v-1.358h2.296v-2.324h1.4v2.324h2.296v1.358H5.202v2.408h-1.4v-2.408H1.506ZM20.506 160.822v-1.358h2.296v-2.324h1.4v2.324h2.296v1.358h-2.296v2.408h-1.4v-2.408h-2.296ZM39.506 160.822v-1.358h2.296v-2.324h1.4v2.324h2.296v1.358h-2.296v2.408h-1.4v-2.408h-2.296ZM58.506 160.822v-1.358h2.296v-2.324h1.4v2.324h2.296v1.358h-2.296v2.408h-1.4v-2.408h-2.296ZM77.506 160.822v-1.358h2.296v-2.324h1.4v2.324h2.296v1.358h-2.296v2.408h-1.4v-2.408h-2.296ZM96.506 160.822v-1.358h2.296v-2.324h1.4v2.324h2.296v1.358h-2.296v2.408h-1.4v-2.408h-2.296ZM115.506 160.822v-1.358h2.296v-2.324h1.4v2.324h2.296v1.358h-2.296v2.408h-1.4v-2.408h-2.296ZM134.506 160.822v-1.358h2.296v-2.324h1.4v2.324h2.296v1.358h-2.296v2.408h-1.4v-2.408h-2.296ZM153.506 160.822v-1.358h2.296v-2.324h1.4v2.324h2.296v1.358h-2.296v2.408h-1.4v-2.408h-2.296ZM172.506 160.822v-1.358h2.296v-2.324h1.4v2.324h2.296v1.358h-2.296v2.408h-1.4v-2.408h-2.296ZM1.506 179.822v-1.358h2.296v-2.324h1.4v2.324h2.296v1.358H5.202v2.408h-1.4v-2.408H1.506ZM20.506 179.822v-1.358h2.296v-2.324h1.4v2.324h2.296v1.358h-2.296v2.408h-1.4v-2.408h-2.296ZM39.506 179.822v-1.358h2.296v-2.324h1.4v2.324h2.296v1.358h-2.296v2.408h-1.4v-2.408h-2.296ZM58.506 179.822v-1.358h2.296v-2.324h1.4v2.324h2.296v1.358h-2.296v2.408h-1.4v-2.408h-2.296ZM77.506 179.822v-1.358h2.296v-2.324h1.4v2.324h2.296v1.358h-2.296v2.408h-1.4v-2.408h-2.296ZM96.506 179.822v-1.358h2.296v-2.324h1.4v2.324h2.296v1.358h-2.296v2.408h-1.4v-2.408h-2.296ZM115.506 179.822v-1.358h2.296v-2.324h1.4v2.324h2.296v1.358h-2.296v2.408h-1.4v-2.408h-2.296ZM134.506 179.822v-1.358h2.296v-2.324h1.4v2.324h2.296v1.358h-2.296v2.408h-1.4v-2.408h-2.296ZM153.506 179.822v-1.358h2.296v-2.324h1.4v2.324h2.296v1.358h-2.296v2.408h-1.4v-2.408h-2.296ZM172.506 179.822v-1.358h2.296v-2.324h1.4v2.324h2.296v1.358h-2.296v2.408h-1.4v-2.408h-2.296Z"/></svg>