<svg xmlns="http://www.w3.org/2000/svg" width="71" height="70" fill="none"><rect width="70" height="70" x=".667" fill="#E6FFF3" rx="10"/><g clip-path="url(#a)"><path fill="#00C968" d="M35.667 20c-8.284 0-15 6.716-15 15 0 8.284 6.716 15 15 15 8.284 0 15-6.716 15-15-.009-8.28-6.72-14.991-15-15Zm6.317 15.478a1.07 1.07 0 0 1-.481.48v.006l-8.571 4.286a1.072 1.072 0 0 1-1.55-.964v-8.572a1.072 1.072 0 0 1 1.55-.959l8.571 4.286c.53.264.745.907.481 1.437Z"/></g><defs><clipPath id="a"><path fill="#fff" d="M20.667 20h30v30h-30z"/></clipPath></defs></svg>