<svg xmlns="http://www.w3.org/2000/svg" width="93" height="16" fill="none"><path fill="#FFC107" d="M16.64 6.046a.857.857 0 0 0-.732-.61l-4.618-.438L9.464.538A.85.85 0 0 0 8.682 0 .85.85 0 0 0 7.9.54L6.074 4.997l-4.62.438a.859.859 0 0 0-.73.61.912.912 0 0 0 .248.943l3.49 3.194-1.028 4.732a.907.907 0 0 0 .33.916.82.82 0 0 0 .934.043l3.984-2.485 3.982 2.484a.818.818 0 0 0 .934-.042.907.907 0 0 0 .331-.916l-1.03-4.732 3.492-3.194a.913.913 0 0 0 .249-.943ZM35.64 6.046a.857.857 0 0 0-.732-.61l-4.618-.438-1.826-4.46A.85.85 0 0 0 27.682 0a.85.85 0 0 0-.782.54l-1.826 4.458-4.62.438a.859.859 0 0 0-.73.61.912.912 0 0 0 .248.943l3.49 3.194-1.029 4.732a.907.907 0 0 0 .331.916.82.82 0 0 0 .934.043l3.984-2.485 3.982 2.484a.818.818 0 0 0 .934-.042.907.907 0 0 0 .331-.916l-1.03-4.732 3.492-3.194a.913.913 0 0 0 .249-.943ZM54.64 6.046a.857.857 0 0 0-.732-.61l-4.618-.438-1.826-4.46A.85.85 0 0 0 46.682 0a.85.85 0 0 0-.782.54l-1.826 4.458-4.62.438a.859.859 0 0 0-.73.61.912.912 0 0 0 .248.943l3.49 3.194-1.029 4.732a.907.907 0 0 0 .331.916.82.82 0 0 0 .934.043l3.984-2.485 3.982 2.484a.818.818 0 0 0 .934-.042.907.907 0 0 0 .331-.916l-1.03-4.732 3.492-3.194a.913.913 0 0 0 .249-.943ZM73.64 6.046a.857.857 0 0 0-.732-.61l-4.618-.438-1.826-4.46A.85.85 0 0 0 65.682 0a.85.85 0 0 0-.782.54l-1.826 4.458-4.62.438a.859.859 0 0 0-.73.61.912.912 0 0 0 .248.943l3.49 3.194-1.029 4.732a.907.907 0 0 0 .331.916.82.82 0 0 0 .934.043l3.984-2.485 3.982 2.484a.818.818 0 0 0 .934-.042.907.907 0 0 0 .331-.916l-1.03-4.732 3.492-3.194a.913.913 0 0 0 .249-.943ZM92.64 6.046a.857.857 0 0 0-.732-.61l-4.618-.438-1.826-4.46A.85.85 0 0 0 84.682 0a.85.85 0 0 0-.782.54l-1.826 4.458-4.62.438a.859.859 0 0 0-.73.61.912.912 0 0 0 .248.943l3.49 3.194-1.029 4.732a.907.907 0 0 0 .331.916.82.82 0 0 0 .934.043l3.984-2.485 3.982 2.484a.818.818 0 0 0 .934-.042.907.907 0 0 0 .331-.916l-1.03-4.732 3.492-3.194a.913.913 0 0 0 .249-.943Z"/></svg>