<svg xmlns="http://www.w3.org/2000/svg" width="22" height="18" fill="none"><path fill="#0A033C" d="M6.946 17.527c8.247 0 12.757-6.715 12.757-12.538 0-.19-.004-.38-.012-.57a9.031 9.031 0 0 0 2.236-2.281 9.06 9.06 0 0 1-2.575.693A4.437 4.437 0 0 0 21.324.394a9.089 9.089 0 0 1-2.847 1.07A4.515 4.515 0 0 0 15.204.07c-2.476 0-4.484 1.974-4.484 4.407 0 .345.04.682.117 1.004A12.806 12.806 0 0 1 1.594.878a4.337 4.337 0 0 0-.607 2.215c0 1.529.792 2.879 1.996 3.668A4.51 4.51 0 0 1 .952 6.21v.056c0 2.134 1.545 3.916 3.596 4.32a4.56 4.56 0 0 1-2.025.076c.571 1.75 2.226 3.025 4.189 3.06a9.095 9.095 0 0 1-5.569 1.887c-.361 0-.718-.02-1.07-.061a12.854 12.854 0 0 0 6.874 1.979"/></svg>